<mxfile host="app.diagrams.net" modified="2023-04-23T03:30:32.398Z" agent="Mozilla/5.0 (Windows NT 10.0; Win64; x64) AppleWebKit/537.36 (KHTML, like Gecko) Chrome/112.0.0.0 Safari/537.36 Edg/112.0.1722.48" version="21.2.1" etag="be_4b2vGPMP5XXqwnRNp" type="github">
  <diagram name="Page-1" id="D5dgvUkKzR7-VcFqEQ4X">
    <mxGraphModel>
      <root>
        <mxCell id="0" />
        <mxCell id="1" parent="0" />
      </root>
    </mxGraphModel>
  </diagram>
</mxfile>
